# xmcd CD database file
#
# Track frame offsets:
#	150
#	16052
#	32545
#	59247
#	77117
#	91057
#	107980
#	125240
#	143442
#
# Disc length: 2405 seconds
#
# Revision: 3
# Processed by: cddbd v1.5.2PL0 Copyright (c) Steve Scherf et al.
# Submitted via: CDex 1.51
#
DISCID=72096309
DTITLE=Peter Green - Kolors
DYEAR=1900
DGENRE=Blues
TTITLE0=What Am I Doing Here?
TTITLE1=Bad Bad Feeling
TTITLE2=Big Boy Now
TTITLE3=Black Woman
TTITLE4=Bandit
TTITLE5=Same Old Blues
TTITLE6=Liquor And you
TTITLE7=Gotta Do It With Me
TTITLE8=Funky Jam
EXTD=
EXTT0=
EXTT1=
EXTT2=
EXTT3=
EXTT4=
EXTT5=
EXTT6=
EXTT7=
EXTT8=
PLAYORDER=
